<svg width="64" height="64" viewBox="0 0 24 24" fill="none" xmlns="http://www.w3.org/2000/svg">
  <defs>
    <linearGradient id="faviconGradient" x1="0%" y1="0%" x2="100%" y2="100%">
      <stop offset="0%" stop-color="#3b82f6" stop-opacity="1" />
      <stop offset="50%" stop-color="#2563eb" stop-opacity="0.9" />
      <stop offset="100%" stop-color="#1d4ed8" stop-opacity="0.8" />
    </linearGradient>
  </defs>
  <g transform="translate(12, 12)">
    <path
      d="M6.178 -3.95c.5.5.5 1.3 0 1.8-.5.5-1.3.5-1.8 0-.5-.5-.5-1.3 0-1.8.5-.5 1.3-.5 1.8 0M-6.178 3.95c-.5-.5-.5-1.3 0-1.8.5-.5 1.3-.5 1.8 0 .5.5.5 1.3 0 1.8-.5.5-1.3.5-1.8 0"
      stroke="url(#faviconGradient)"
      stroke-width="2"
      stroke-linecap="round"
      stroke-linejoin="round"
      fill="none"
    />
    <path
      d="M-4.5 0c0-2.5 2-4.5 4.5-4.5s4.5 2 4.5 4.5"
      stroke="url(#faviconGradient)"
      stroke-width="2"
      stroke-linecap="round"
      fill="none"
    />
    <path
      d="M4.5 0c0 2.5-2 4.5-4.5 4.5S-4.5 2.5-4.5 0"
      stroke="url(#faviconGradient)"
      stroke-width="2"
      stroke-linecap="round"
      fill="none"
    />
  </g>
</svg>
